<svg width="92" height="92" viewBox="0 0 92 92" fill="none" xmlns="http://www.w3.org/2000/svg">
<path d="M46 36C48.2981 36 50.5738 35.5474 52.697 34.6679C54.8202 33.7884 56.7493 32.4994 58.3744 30.8744C59.9994 29.2493 61.2884 27.3202 62.1679 25.197C63.0474 23.0738 63.5 20.7981 63.5 18.5C63.5 16.2019 63.0474 13.9262 62.1679 11.803C61.2884 9.67984 59.9994 7.75066 58.3744 6.12563C56.7493 4.50061 54.8202 3.21157 52.697 2.33211C50.5738 1.45265 48.2981 1 46 1C41.3587 1 36.9075 2.84375 33.6256 6.12563C30.3437 9.40752 28.5 13.8587 28.5 18.5C28.5 23.1413 30.3437 27.5925 33.6256 30.8744C36.9075 34.1563 41.3587 36 46 36ZM1 88V91H91V88C91 76.8 91 71.2 88.82 66.92C86.9026 63.1569 83.8431 60.0974 80.08 58.18C75.8 56 70.2 56 59 56H33C21.8 56 16.2 56 11.92 58.18C8.15693 60.0974 5.09744 63.1569 3.18 66.92C1 71.2 1 76.8 1 88Z" fill="#999"/>
</svg>